<svg xmlns="http://www.w3.org/2000/svg" width="48" height="48" viewBox="0 0 48 48">
  <defs>
    <linearGradient id="g" x1="0" y1="0" x2="1" y2="1">
      <stop offset="0%" stop-color="#ef4444" />
      <stop offset="100%" stop-color="#b91c1c" />
    </linearGradient>
  </defs>
  <circle cx="24" cy="24" r="20" fill="#ffffff" stroke="#fee2e2" stroke-width="2"/>
  <path d="M12 26c0-2 1.2-3.8 3-4.4l4.5-1.5 2.2-4h4.6l2.2 4 4.5 1.5c1.8.6 3 2.4 3 4.4v4h-2.5a3 3 0 0 1-6 0h-8a3 3 0 0 1-6 0H12v-4zm5 4a1.5 1.5 0 1 0 0-3 1.5 1.5 0 0 0 0 3zm14 0a1.5 1.5 0 1 0 0-3 1.5 1.5 0 0 0 0 3z" fill="url(#g)"/>
</svg>
